<svg xmlns="http://www.w3.org/2000/svg" width="220" height="42.238" viewBox="0 0 220 42.238"><defs><style>.a,.b{fill:#161615;}.a{fill-rule:evenodd;}</style></defs><g transform="translate(-24.501 -35.704)"><path class="a" d="M485.241,39.179h.773a1.252,1.252,0,0,0,.757-.164.536.536,0,0,0,.2-.435.528.528,0,0,0-.1-.312.568.568,0,0,0-.269-.206,2.033,2.033,0,0,0-.641-.068h-.725ZM484.6,41.4V37.456h1.358a3.3,3.3,0,0,1,1.007.11.972.972,0,0,1,.5.382,1.008,1.008,0,0,1,.184.578,1.042,1.042,0,0,1-.31.752,1.224,1.224,0,0,1-.821.36,1.047,1.047,0,0,1,.335.209,4.387,4.387,0,0,1,.584.781l.481.772h-.773l-.352-.621a3.153,3.153,0,0,0-.669-.919.81.81,0,0,0-.509-.132h-.375V41.4Zm1.611-5.087a3.136,3.136,0,0,0-1.507.4,2.844,2.844,0,0,0-1.145,1.133,3.05,3.05,0,0,0-.007,3.053,2.882,2.882,0,0,0,1.135,1.133,3.055,3.055,0,0,0,3.044,0,2.866,2.866,0,0,0,1.133-1.133,3.062,3.062,0,0,0-.008-3.053,2.817,2.817,0,0,0-1.144-1.133A3.137,3.137,0,0,0,486.215,36.311Zm0-.607a3.751,3.751,0,0,1,1.8.475,3.365,3.365,0,0,1,1.37,1.355,3.744,3.744,0,0,1,.491,1.84A3.707,3.707,0,0,1,489.4,41.2a3.394,3.394,0,0,1-1.356,1.359,3.682,3.682,0,0,1-3.652,0,3.414,3.414,0,0,1-1.359-1.359,3.673,3.673,0,0,1,.007-3.664,3.4,3.4,0,0,1,1.374-1.355A3.752,3.752,0,0,1,486.215,35.7Z" transform="translate(-245.379 0)"/><path class="b" d="M237.221,51.769a13.29,13.29,0,0,1-4.014,9.563,13.82,13.82,0,0,1-22.421-4.394,13.244,13.244,0,0,1-1.023-5.169,13.468,13.468,0,0,1,1.023-5.224,13.654,13.654,0,0,1,2.991-4.412,13.052,13.052,0,0,1,4.4-2.9,14.7,14.7,0,0,1,10.618.012,13.22,13.22,0,0,1,4.409,2.891,13.645,13.645,0,0,1,2.991,4.412,13.46,13.46,0,0,1,1.023,5.224M223.474,63.2a11.124,11.124,0,0,0,7.974-3.312,11.6,11.6,0,0,0,0-16.241,10.819,10.819,0,0,0-3.637-2.464,11.173,11.173,0,0,0-4.337-.848,10.97,10.97,0,0,0-4.3.848,11.275,11.275,0,0,0-3.643,2.464,11.669,11.669,0,0,0-2.453,3.727,11.6,11.6,0,0,0,2.453,12.514,10.763,10.763,0,0,0,7.938,3.312Zm-50.826,1.407V37.74L190.81,59.306V38.822H193V65.366L174.838,43.751V64.608Zm-36.54,0,11.276-26.8,10.8,26.8H155.64l-3.278-8.728h-10.48l-3.4,8.728Zm6.562-10.747h8.937l-4.379-11.21ZM109.732,65.618l-9.009-20.7L98.778,64.608h-2.4L99.867,37.74,109.7,60.683l10.2-22.943,3.3,26.868h-2.4l-1.914-19.685ZM81.273,51.769a13.3,13.3,0,0,1-4.014,9.563,13.819,13.819,0,0,1-22.421-4.394,13.236,13.236,0,0,1-1.023-5.169,13.459,13.459,0,0,1,1.023-5.224,13.66,13.66,0,0,1,2.991-4.412,13.052,13.052,0,0,1,4.4-2.9,14.706,14.706,0,0,1,10.618.012,13.226,13.226,0,0,1,4.409,2.891,13.645,13.645,0,0,1,2.991,4.412A13.46,13.46,0,0,1,81.273,51.769ZM67.526,63.2A11.124,11.124,0,0,0,75.5,59.89a11.6,11.6,0,0,0,0-16.241,10.819,10.819,0,0,0-3.637-2.464,11.175,11.175,0,0,0-4.337-.848,10.968,10.968,0,0,0-4.3.848,11.277,11.277,0,0,0-3.643,2.464,11.675,11.675,0,0,0-2.452,3.727A11.6,11.6,0,0,0,59.588,59.89,10.765,10.765,0,0,0,67.526,63.2ZM40.072,64.608H37.237l-9-12.3h-1.4v12.3H24.5V38.822h4.714q4.172,0,6.24,1.743a6.512,6.512,0,0,1,2.075,5.284,6.3,6.3,0,0,1-1.776,4.737,6.724,6.724,0,0,1-4.888,1.725ZM26.834,40.877V50.4h2.351q3.257,0,4.546-1.046a4.362,4.362,0,0,0,1.286-3.564A4.709,4.709,0,0,0,33.684,42q-1.328-1.127-4.5-1.124Z" transform="translate(0 -1.086)"/><path class="b" d="M169.807,117.329l-.589-.694a3.721,3.721,0,0,1-1.064.655,3.27,3.27,0,0,1-1.193.213,2.313,2.313,0,0,1-1.637-.584,1.948,1.948,0,0,1-.63-1.5,1.894,1.894,0,0,1,.388-1.149,4.447,4.447,0,0,1,1.234-1.053l-.294-.32a1.936,1.936,0,0,1-.371-.578,1.652,1.652,0,0,1-.129-.638,1.5,1.5,0,0,1,.526-1.181,1.969,1.969,0,0,1,1.351-.461,1.932,1.932,0,0,1,1.305.417,1.409,1.409,0,0,1,.483,1.125,1.563,1.563,0,0,1-.339.975,3.7,3.7,0,0,1-1.079.876l1.518,1.765c.146-.146.3-.311.449-.5s.314-.4.488-.641l.7.742a5.3,5.3,0,0,1-.442.606,5.371,5.371,0,0,1-.529.536l1.227,1.389Zm-1.261-1.469-1.6-1.839-.186.124a2.806,2.806,0,0,0-.728.621,1.031,1.031,0,0,0-.208.625,1.1,1.1,0,0,0,.339.819,1.155,1.155,0,0,0,.844.334,1.846,1.846,0,0,0,.756-.17A3.226,3.226,0,0,0,168.546,115.86Zm-1.312-3.187.271-.155a1.216,1.216,0,0,0,.42-.382.875.875,0,0,0,.139-.487.694.694,0,0,0-.19-.505.655.655,0,0,0-.494-.2.743.743,0,0,0-.541.2.685.685,0,0,0-.2.514.786.786,0,0,0,.058.3.867.867,0,0,0,.177.274Zm62.312,4.656v-7.586l4.639,4.46c.126.126.253.26.384.4s.265.3.408.483v-5.061h1.093v7.586l-4.729-4.544c-.126-.124-.248-.253-.366-.39s-.23-.279-.337-.429v5.076Zm-8.887,0v-7.3h4.074v1.011h-2.89v1.827h2.89v1.042h-2.89v2.359h2.89v1.062Zm-11.011,0v-7.3h1.6a10.534,10.534,0,0,1,2.2.157,3,3,0,0,1,1.115.526,3.059,3.059,0,0,1,.96,1.242,4.334,4.334,0,0,1,.327,1.73,4.278,4.278,0,0,1-.327,1.722,3.113,3.113,0,0,1-.96,1.24,3,3,0,0,1-1.091.526,8.38,8.38,0,0,1-1.9.157h-1.918Zm1.185-1.072h1a5.148,5.148,0,0,0,1.234-.109,1.806,1.806,0,0,0,.716-.369,2.194,2.194,0,0,0,.621-.882,3.709,3.709,0,0,0,0-2.447,2.194,2.194,0,0,0-.621-.882,1.846,1.846,0,0,0-.74-.369,6.008,6.008,0,0,0-1.351-.109h-.857Zm-9.243-2.2v3.267h-1.113v-7.3h1.654a5.209,5.209,0,0,1,1.13.1,1.672,1.672,0,0,1,1.208,1,2.249,2.249,0,0,1,.184.917,2.054,2.054,0,0,1-.424,1.373,1.869,1.869,0,0,1-1.251.6l2.512,3.322h-1.337l-2.43-3.267Zm.072-.919h.216a2.393,2.393,0,0,0,1.251-.22.89.89,0,0,0,.31-.778.994.994,0,0,0-.332-.85,2.183,2.183,0,0,0-1.229-.246h-.216Zm-6.576,4.186-.827-1.879h-2.893l-.848,1.879h-1.246l3.535-7.586,3.531,7.586Zm-3.281-2.869h2.035l-.749-1.665c-.042-.105-.089-.228-.134-.366s-.094-.291-.14-.461q-.059.24-.128.446c-.044.138-.09.265-.136.381Zm-9.151-.868h2.888c0,.049,0,.119.005.209.01.237.015.395.015.478a3.17,3.17,0,0,1-.881,2.391,3.432,3.432,0,0,1-2.486.853,4.533,4.533,0,0,1-1.6-.264,3.392,3.392,0,0,1-1.231-.8,3.609,3.609,0,0,1-.794-1.242,4.153,4.153,0,0,1-.278-1.525,4.065,4.065,0,0,1,.281-1.526,3.545,3.545,0,0,1,.836-1.23,3.619,3.619,0,0,1,1.251-.8,4.283,4.283,0,0,1,1.535-.274,3.635,3.635,0,0,1,1.541.315,3.431,3.431,0,0,1,1.213.961l-.864.653a2.41,2.41,0,0,0-.834-.638,2.485,2.485,0,0,0-1.037-.209,2.6,2.6,0,0,0-1.936.76,2.693,2.693,0,0,0-.75,1.976,2.749,2.749,0,0,0,.75,2.006,2.6,2.6,0,0,0,1.947.771,2.473,2.473,0,0,0,1.6-.473,1.572,1.572,0,0,0,.584-1.292v-.1h-1.755Zm-29.4,3.737v-7.3h4.074v1.011h-2.89v1.827h2.89v1.042h-2.89v2.359h2.89v1.062Zm-6.31-3.6c-.014-.056-.036-.213-.065-.468-.027-.213-.051-.39-.069-.529a3.77,3.77,0,0,1-.128.5,4.143,4.143,0,0,1-.208.509l-1.909,3.89-1.909-3.971c-.08-.163-.15-.32-.208-.473s-.109-.3-.151-.454a4.578,4.578,0,0,1-.037.482q-.034.253-.1.526l-.783,3.594H140.29l1.726-7.607,2.154,4.607c.032.071.083.194.151.362s.15.379.247.628a7.952,7.952,0,0,1,.33-.8c.039-.087.07-.153.088-.2l2.105-4.6,1.765,7.607h-1.1Zm-10.766-.031a3.709,3.709,0,0,1-1.142,2.708,3.954,3.954,0,0,1-1.271.832,3.888,3.888,0,0,1-1.484.29,3.961,3.961,0,0,1-1.5-.291,3.89,3.89,0,0,1-1.262-.83,3.7,3.7,0,0,1-.848-1.232,3.8,3.8,0,0,1,.848-4.193,3.861,3.861,0,0,1,1.266-.827,4.084,4.084,0,0,1,2.993,0,3.869,3.869,0,0,1,2.114,2.076A3.768,3.768,0,0,1,136.181,113.694Zm-1.235,0a2.776,2.776,0,0,0-.2-1.052,2.729,2.729,0,0,0-.58-.886,2.563,2.563,0,0,0-.854-.591,2.6,2.6,0,0,0-1.024-.208,2.633,2.633,0,0,0-1.026.2,2.588,2.588,0,0,0-.865.594,2.653,2.653,0,0,0-.578.881,2.822,2.822,0,0,0-.2,1.057,2.771,2.771,0,0,0,.2,1.047,2.72,2.72,0,0,0,.578.881,2.584,2.584,0,0,0,.863.594,2.611,2.611,0,0,0,1.028.2,2.57,2.57,0,0,0,1.014-.2,2.656,2.656,0,0,0,.864-.594,2.737,2.737,0,0,0,.783-1.928Zm-17.339,3.635v-7.3h1.184v2.7h3.594v-2.7h1.184v7.3h-1.184v-3.543h-3.594v3.543Z" transform="translate(-50.103 -39.683)"/><path class="a" d="M63.955,116.873l21.124-1.152v2.3Z" transform="translate(-21.048 -42.884)"/><path class="a" d="M400.059,116.873l-21.124-1.152v2.3Z" transform="translate(-189.929 -42.884)"/></g></svg>